<svg id="SvgjsSvg1001" width="288" height="288" xmlns="http://www.w3.org/2000/svg" version="1.1" xmlns:xlink="http://www.w3.org/1999/xlink" xmlns:svgjs="http://svgjs.com/svgjs"><defs id="SvgjsDefs1002"></defs><g id="SvgjsG1008" transform="matrix(1,0,0,1,0,0)"><svg xmlns="http://www.w3.org/2000/svg" width="288" height="288" aria-hidden="true" class="iconify iconify--gis" viewBox="0 0 100 100"><path fill="#ffffff" fill-rule="evenodd" d="M12.467 5.087a2.084 2.084 0 0 0-1.772 1.041L.28 24.171a2.084 2.084 0 0 0 1.805 3.125h20.834a2.084 2.084 0 0 0 1.803-3.125L14.305 6.128a2.084 2.084 0 0 0-1.838-1.04zm.033 6.25l6.807 11.791H5.69zM40 14.485v7h15v-7zm22 0v7h38v-7zM2.084 39.671A2.084 2.084 0 0 0 0 41.755v16.666a2.084 2.084 0 0 0 2.084 2.084h20.832A2.084 2.084 0 0 0 25 58.421V41.755a2.084 2.084 0 0 0-2.084-2.084zm2.082 4.168h16.668v12.5H4.166zM40 47.837v7h27v-7zm34 0v7h26v-7zM12.5 69.913c-6.879 0-12.5 5.621-12.5 12.5c0 6.88 5.621 12.5 12.5 12.5s12.5-5.62 12.5-12.5c0-6.879-5.621-12.5-12.5-12.5zm0 4.166a8.303 8.303 0 0 1 8.334 8.334a8.303 8.303 0 0 1-8.334 8.334a8.303 8.303 0 0 1-8.334-8.334A8.303 8.303 0 0 1 12.5 74.08zM40 81.19v7h15v-7zm22 0v7h38v-7z" class="colorcurrentColor svgShape"></path></svg></g></svg>